<svg e="m_scream" height="360px" id="skincolor" viewbox="0 0 360 360" width="360px" xmlns="http://www.w3.org/2000/svg" xmlns:xlink="http://www.w3.org/1999/xlink"><g id="m_scream">
<path d="M180 196l0 0c14,0 24,11 24,24 0,4 0,8 0,11 -8,-1 -16,-2 -24,-2 -8,0 -16,1 -24,2l0 -11c0,-13 10,-24 24,-24z" fill="#000000"></path>
<path d="M180 196l0 0c7,0 13,2 17,7l-34 0c4,-5 10,-7 17,-7z" fill="#FEFEFE"></path>
<path d="M180 222c-2,-2 -4,-2 -6,-2 -3,0 -8,1 -9,4 -2,2 -3,3 -5,7 7,-1 13,-2 20,-2l0 0 0 0c7,0 13,1 20,2 -2,-4 -3,-5 -5,-7 -1,-3 -6,-4 -9,-4 -2,0 -4,0 -6,2z" fill="#FF4F6D"></path>
</g></svg>