<svg e="m_tongue" height="360px" id="skincolor" viewbox="0 0 360 360" width="360px" xmlns="http://www.w3.org/2000/svg" xmlns:xlink="http://www.w3.org/1999/xlink"><g id="m_tongue">
<path d="M180 220l0 0c17,0 31,-10 31,-23l0 -1 -62 0 0 1c0,13 14,23 31,23z" fill="#000000"></path>
<path d="M199 196l-38 0 0 2c0,3 2,5 4,5l30 0c2,0 4,-2 4,-5l0 -2z" fill="#FEFEFE"></path>
<path d="M194 220l0 0c0,8 -6,15 -14,15l0 0c-8,0 -14,-7 -14,-15l0 0 0 -7c0,-4 4,-8 8,-8 3,0 5,1 6,2 1,-1 3,-2 6,-2 4,0 8,4 8,8l0 7z" fill="#FF4F6D"></path>
</g></svg>