<svg e="m_vomit" height="360px" id="skincolor" viewbox="0 0 360 360" width="360px" xmlns="http://www.w3.org/2000/svg" xmlns:xlink="http://www.w3.org/1999/xlink"><g id="m_vomit">
<path d="M180 193l0 0c13,0 24,11 24,25l0 2 -48 0 0 -2c0,-14 11,-25 24,-25z" fill="#000000"></path>
<path d="M180 193l0 0c6,0 12,3 17,7l-34 0c5,-4 11,-7 17,-7z" fill="#FEFEFE"></path>
<path d="M165 211l30 0c4,0 8,4 8,8l0 6c0,4 -4,7 -8,7 -4,0 -7,-3 -7,-7 0,-3 -4,-5 -8,-5 -4,0 -7,4 -7,8 0,5 -4,8 -8,8 -4,0 -7,-3 -7,-8l0 -9c0,-4 3,-8 7,-8z" fill="#88C553"></path>
</g></svg>