<svg e="h_longhaircurly" height="360px" id="skincolor" viewbox="0 0 360 360" width="360px" xmlns="http://www.w3.org/2000/svg" xmlns:xlink="http://www.w3.org/1999/xlink"><g class="h_longhaircurly">
<path d="M97 143c2,-1 4,-3 6,-5 5,-5 17,-11 22,-19 10,-16 12,-23 16,-22 13,4 20,3 39,3 19,0 26,1 39,-3 4,-1 7,6 16,22 4,7 13,11 22,19 2,2 4,3 6,5 -11,-6 -24,-13 -31,-22 -3,-5 -6,-10 -9,-15 -1,-1 -2,-4 -4,-5 -4,1 -8,2 -12,2 -4,1 -8,1 -12,1 -5,0 -10,0 -15,0 -5,0 -10,0 -15,0 -4,0 -8,0 -12,-1 -4,0 -8,-1 -12,-2 -2,1 -3,4 -4,5 -3,5 -6,10 -9,15 -13,14 -26,16 -31,22z" fill="#000000" fill-opacity="0.2"></path>
<path class="tinted" d="M59 95c9,-20 27,-34 42,-33 2,-13 13,-25 29,-32 19,-8 38,-6 50,3 12,-9 31,-11 50,-3 16,7 27,19 29,32 15,-1 33,13 42,33 13,33 -4,80 -44,43 -5,-5 -17,-11 -22,-19 -10,-16 -12,-23 -16,-22 -13,4 -20,3 -39,3 -19,0 -26,1 -39,-3 -4,-1 -6,6 -16,22 -5,8 -17,14 -22,19 -8,7 -14,19 -30,13 -18,-7 -24,-32 -14,-56z" fill="#bb7748"></path>
</g></svg>