<svg e="h_longhairstraight" height="360px" id="skincolor" viewbox="0 0 360 360" width="360px" xmlns="http://www.w3.org/2000/svg" xmlns:xlink="http://www.w3.org/1999/xlink"><g class="h_longhairstraight">
<path d="M249 135l0 -7c0,-38 -31,-69 -69,-69l0 0c-38,0 -69,31 -69,69l0 7 5 -6c32,-3 60,-23 80,-46 12,24 28,44 53,52z" fill="#000000" fill-opacity="0.2"></path>
<path class="tinted" d="M273 140l0 -11c0,-51 -42,-92 -93,-92l0 0c-50,0 -92,41 -92,92 0,74 0,148 0,222 16,-2 28,-16 28,-33 0,-59 0,-129 0,-189 31,-8 58,-25 81,-53 18,40 42,63 76,64z" fill="#bb7748"></path>
</g></svg>