<svg e="h_miawallace" height="360px" id="skincolor" viewbox="0 0 360 360" width="360px" xmlns="http://www.w3.org/2000/svg" xmlns:xlink="http://www.w3.org/1999/xlink"><g class="h_miawallace">
<path d="M249 130l0 -2c0,-38 -31,-69 -69,-69l0 0c-38,0 -69,31 -69,69l0 1c10,-3 21,-3 34,-3l3 0 2 -11 2 11 3 0c8,0 16,0 24,0 8,0 16,0 24,0 7,0 14,0 21,0 8,0 17,1 25,4z" fill="#000000" fill-opacity="0.2"></path>
<path class="tinted" d="M179 39c-64,0 -74,23 -94,83 -4,12 -8,23 -12,33l0 0 0 0 0 0 0 0 0 0 0 0 0 0 0 0 0 0 0 0 0 0 0 0 0 0 0 0 0 0c19,-29 38,-33 72,-33l5 -24 5 24c7,0 15,1 24,1 55,0 81,-6 105,32l0 0 0 0 0 0 0 0 0 0 0 0 0 0 0 0 0 0 0 0 0 0 0 0 0 0 0 0 0 0c-3,-10 -7,-21 -11,-33 -21,-60 -30,-83 -94,-83z" fill="#bb7748"></path>
</g></svg>