<svg e="h_shorthairdreads2" height="360px" id="skincolor" viewbox="0 0 360 360" width="360px" xmlns="http://www.w3.org/2000/svg" xmlns:xlink="http://www.w3.org/1999/xlink"><g class="h_shorthairdreads2">
<path d="M180 59l0 0c-29,0 -55,18 -65,45 5,-7 19,-12 26,-12 6,0 17,0 25,0 5,0 10,0 14,0 5,0 9,0 13,0 9,0 18,-1 26,0 6,1 19,4 26,12 -10,-27 -36,-45 -65,-45z" fill="#000000" fill-opacity="0.2"></path>
<path class="tinted" d="M126 229c-1,0 -1,0 -1,1 0,0 -1,1 -2,1 -2,2 -5,3 -7,3 -1,1 -2,1 -3,3 -1,1 -3,2 -5,1 -2,-1 -2,-3 -2,-4 2,-4 5,-5 8,-6 1,-1 2,-1 3,-2 -4,-4 -8,-8 -11,-12l0 0c-1,0 -3,0 -7,0 -1,-1 -3,-2 -2,-4 0,-2 2,-4 4,-3l0 0c-5,-7 -7,-12 -8,-16 -2,0 -4,2 -5,3 -1,2 -2,4 -3,6 0,1 -2,2 -4,2 -2,-1 -3,-3 -2,-5 1,-2 2,-5 4,-7 0,-1 0,-1 1,-2 -4,1 -9,-1 -10,-2 -2,-2 -2,-4 -1,-5 1,-2 3,-2 5,-1 1,1 3,1 6,1 1,0 2,0 3,0 -2,-1 -4,-3 -6,-5 0,-1 -1,-2 -2,-2 -1,-2 -1,-4 1,-5 1,-1 3,-1 5,0 1,1 1,2 2,2 2,2 3,4 3,3 0,0 0,0 1,-1 0,0 1,-1 1,-2 -1,-3 -2,-4 -4,-6 0,0 -1,-1 -1,-1 -4,2 -7,2 -11,2 -6,-1 -11,-5 -14,-8 -1,-1 -1,-4 0,-5 1,-1 4,-1 5,0 2,2 6,5 10,6 2,0 4,0 5,-1 0,-1 -1,-4 -1,-6l-10 -8c-2,-1 -2,-3 -1,-5 1,-1 4,-1 5,0l6 4c0,-4 1,-8 2,-14 -1,-1 -2,-2 -3,-3 -2,-2 -5,-4 -7,-5 -2,0 -3,1 -4,1 -1,1 -2,2 -3,3 -2,2 -4,2 -5,0 -2,-1 -2,-3 0,-5 1,-1 3,-3 4,-4 3,-1 5,-2 8,-2 5,1 8,3 11,6 0,0 0,0 0,-1 -2,-2 -5,-4 -8,-6l0 0c-4,-3 -7,-5 -9,-6 -2,-1 -3,-3 -2,-4 0,-2 3,-3 4,-3 3,1 7,4 11,7l0 0c0,0 0,0 1,1 0,-1 -1,-2 -1,-2 0,0 0,0 0,-1 -4,-1 -6,-4 -7,-6 0,-2 1,-4 2,-5 2,0 4,1 5,3 0,0 0,0 0,0 1,0 1,-1 1,-2 -4,-4 -6,-2 -10,1l-1 0c-1,1 -4,1 -5,-1 -1,-1 -1,-3 1,-4l1 -1c7,-5 10,-8 16,-2 0,-1 1,-1 1,-2 1,-3 3,-6 4,-8 -4,-4 -6,-11 -7,-15 0,0 -1,-1 -1,-1 0,-2 1,-4 2,-5 2,-1 4,0 5,2 0,1 0,1 0,2 1,2 2,5 3,8 0,-2 0,-3 0,-4 -1,-2 -2,-3 1,-8 -1,0 -2,-1 -2,-2 -3,-4 -5,-8 -5,-13 -1,-2 1,-4 3,-4 2,0 3,1 4,3 0,4 2,7 3,10 1,0 1,1 2,1 1,0 3,0 6,1 0,0 1,0 2,0 0,-3 1,-6 2,-9 0,-3 1,-6 2,-7 2,-2 4,-2 5,-1 2,1 2,3 1,5 0,1 -1,3 -2,5l0 0c3,-2 7,-6 11,-9 -3,-5 -3,-11 -3,-16 0,-2 0,-3 0,-5 -1,-2 1,-3 3,-3 2,0 3,1 4,3 0,2 0,3 0,5 0,4 0,8 2,12 2,-1 4,-2 6,-3 2,-5 1,-7 1,-10 0,-1 0,-2 0,-4 0,-1 1,-3 3,-3 2,0 4,1 4,3 0,1 0,2 0,3 0,3 1,5 0,7 3,0 5,-1 8,-2 0,-5 1,-7 3,-10 1,-1 1,-2 2,-3 1,-2 3,-2 5,-1 2,1 2,3 1,4 -1,2 -1,3 -1,3 -2,2 -2,4 -3,6 2,0 3,0 5,0 1,-5 2,-7 4,-9l1 0c1,-2 3,-2 5,0 1,1 1,3 0,5l-1 0c-1,1 -1,2 -2,3 3,1 6,1 10,1 -1,0 -1,-1 -2,-1 0,-1 0,-1 -1,-1 -1,-2 -1,-4 1,-5 1,-2 3,-1 5,0 0,0 0,0 0,1 2,2 4,3 5,7 1,0 2,1 3,1l4 1c6,-6 7,-7 8,-8 0,-1 1,-2 2,-4 1,-2 4,-2 5,-1 2,2 2,4 1,5 -1,2 -2,2 -2,3 -1,1 -1,3 -5,7 2,0 4,0 6,1 1,-4 3,-6 4,-8 0,-1 0,-1 1,-2 0,-2 3,-2 4,-1 2,1 3,3 2,4 0,1 -1,2 -1,2 -1,2 -2,4 -3,6 3,1 4,1 5,2 1,-2 1,-3 1,-4 1,-4 4,-6 6,-7 1,-1 3,-1 4,1 2,1 1,3 0,4 -1,1 -2,2 -3,4 -1,2 -1,6 0,11 1,0 2,0 3,1 0,0 0,0 0,0 1,-2 1,-4 2,-5 0,-2 0,-3 0,-5 0,-2 2,-3 4,-3 2,0 3,2 3,4 0,2 0,3 0,4 -1,2 -1,4 -2,7 2,1 4,2 6,3 1,-2 1,-4 1,-5 0,-2 1,-4 3,-4 2,0 4,2 4,4 0,3 0,6 -1,9 -1,1 -1,2 -1,3 0,0 0,1 0,1 0,1 0,3 1,3 1,1 1,1 2,1 1,0 2,-1 3,-1 1,-4 1,-6 0,-8 0,-1 0,-3 0,-5 0,-2 1,-4 3,-4 2,0 4,2 4,4 0,1 0,2 0,3 1,3 2,6 -1,16 0,0 -1,1 -1,2 1,2 2,4 3,7 0,-3 1,-5 1,-6 0,0 0,-1 0,-2 0,-1 2,-3 4,-2 2,0 3,2 3,4 0,0 0,0 0,1 0,2 -1,6 -3,10 -1,2 -2,3 -2,4 0,1 1,3 1,5 2,-5 3,-10 4,-10 0,-2 1,-4 3,-4 2,1 4,2 4,4 -1,2 -3,9 -5,14l0 1c1,-2 3,-4 4,-5 2,-1 4,-1 5,0 1,2 1,4 0,5 -1,1 -2,3 -4,5 -2,2 -4,4 -6,6l1 2c0,2 0,3 1,4 1,-4 2,-7 2,-8 0,-2 2,-4 4,-4 1,0 3,2 3,4 0,2 -1,6 -3,11 3,-2 6,-4 8,-4 2,0 3,2 3,4 0,2 -1,4 -3,4 -1,0 -5,2 -9,4 -1,1 -3,2 -4,3 0,0 0,0 0,1l0 0c3,0 6,1 8,1 2,0 3,1 3,3 0,2 -1,4 -3,4 -3,0 -5,-1 -8,-1l0 0c5,2 9,5 9,5 2,1 3,3 2,5 -1,1 -3,2 -5,1 -2,-1 -5,-3 -9,-5l0 0c-1,1 -1,1 -1,1 2,1 4,2 6,3 4,2 8,5 12,6 1,1 2,3 2,5 -1,1 -3,2 -5,2 -3,-2 -6,-3 -9,-5 0,1 1,3 1,4l0 1c2,1 3,2 4,3 2,1 3,4 4,8 0,3 0,6 0,10 0,2 -1,3 -3,3 -2,0 -4,-1 -4,-3 0,-4 0,-7 0,-9 -1,-2 -1,-3 -2,-4 0,0 -1,-1 -1,-1 -1,1 -2,2 -3,3 -1,1 -1,2 -2,3 2,3 4,6 6,10l0 1c1,2 1,4 -1,5 -2,1 -4,0 -5,-1l0 -2 -1 0c0,1 0,2 -1,4 5,1 5,3 6,5 0,1 1,3 2,4 1,2 1,4 -1,5 -1,1 -4,1 -5,-1 -1,-2 -2,-4 -2,-5 -1,-1 -1,-1 -5,-3 0,0 -1,0 -1,0 -1,0 -1,0 -2,0 -1,1 -3,1 -3,2 -1,2 -2,3 -2,3 2,1 4,1 7,2 0,0 1,0 2,0 2,0 3,1 3,3 0,2 -2,4 -4,4 -1,0 -1,0 -2,0 -2,-1 -4,-1 -6,-1 0,1 -1,1 -1,2 1,1 4,2 8,2 2,1 3,2 3,4 0,2 -2,4 -4,3 -6,-1 -10,-2 -12,-3 -2,2 -5,5 -8,8 0,0 0,1 1,1 3,1 6,2 9,3 1,0 3,2 2,4 0,2 -2,3 -4,3 -2,-1 -6,-2 -10,-4 1,2 1,4 1,6 1,4 2,8 2,13 -1,2 -2,3 -4,3 -2,0 -4,-2 -3,-4 0,-4 -1,-7 -2,-11 0,-3 -1,-6 -1,-10 0,-1 0,-2 0,-2 0,0 0,0 0,-1 0,0 0,-1 0,-2l0 0c-1,1 -1,1 -2,2 9,-11 14,-24 15,-38 7,-1 13,-7 13
</g>
<g  fill="#bb7748" fill-rule="nonzero" class="h_shorthairfrizzle" style="display:none;">
<path class="tinted" d="M129 82c36,0 66,0 102,0 10,-6 20,-16 22,-27 1,-11 -4,-25 -12,-33 -4,5 -12,19 -31,19 -15,1 -30,-7 -45,-4 -11,3 -16,15 -24,22 -5,4 -12,5 -15,10 -1,4 1,10 3,13z" fill="#bb7748"></path>
</path></g></svg>
