<svg e="eb_unibrow" height="360px" id="skincolor" viewbox="0 0 360 360" width="360px" xmlns="http://www.w3.org/2000/svg" xmlns:xlink="http://www.w3.org/1999/xlink"><g id="eb_unibrow">
<path d="M120 136c3,-5 10,-11 17,-12 7,-1 14,3 20,4 7,1 13,3 20,4 -7,4 -12,4 -18,4 -7,0 -15,-4 -22,-4 -6,0 -11,2 -17,4z" fill="#000000" fill-opacity="0.7"></path>
<path d="M240 136c-3,-5 -10,-11 -17,-12 -7,-1 -14,3 -20,4 -7,1 -13,3 -20,4 7,4 12,4 18,4 7,0 15,-4 22,-4 6,0 11,2 17,4z" fill="#000000" fill-opacity="0.7"></path>
</g></svg>