<svg e="g_fancy2" height="360px" id="skincolor" viewbox="0 0 360 360" width="360px" xmlns="http://www.w3.org/2000/svg" xmlns:xlink="http://www.w3.org/1999/xlink"><g id="g_fancy2">
<path d="M180 145c3,0 10,-5 17,-9 1,-1 2,-1 3,-2 1,-1 1,-1 2,-1 10,-4 27,-4 41,-3 9,0 11,-2 10,16 0,8 -1,16 -7,22 -9,8 -24,8 -35,7 -7,0 -13,-3 -18,-7 -3,-3 -5,-7 -6,-12l0 0c-1,-3 -4,-6 -7,-6l0 -5zm57 -10c-60,-10 -55,34 -26,37 34,2 40,-13 38,-24 -2,-8 -8,-12 -12,-13z" fill="#00A0E3"></path>
<path d="M180 145c-3,0 -10,-5 -17,-9 -1,-1 -2,-1 -3,-2 -1,-1 -1,-1 -2,-1 -10,-4 -27,-4 -41,-3 -9,0 -11,-2 -10,16 0,8 1,16 7,22 9,8 24,8 35,7 7,0 13,-3 18,-7 3,-3 5,-7 6,-12l0 0c1,-3 4,-6 7,-6l0 -5zm-57 -10c60,-10 55,34 26,37 -34,2 -40,-13 -38,-24 2,-8 8,-12 12,-13z" fill="#00A0E3"></path>
<path class="glass" d="M123 135c60,-10 55,34 26,37 -34,2 -40,-13 -38,-24 2,-8 8,-12 12,-13zm114 0c-60,-10 -55,34 -26,37 34,2 40,-13 38,-24 -2,-8 -8,-12 -12,-13z" fill="#5B5B5B" fill-opacity="0.5"></path>
</g></svg>