<svg e="e_hearts" height="360px" id="skincolor" viewbox="0 0 360 360" width="360px" xmlns="http://www.w3.org/2000/svg" xmlns:xlink="http://www.w3.org/1999/xlink"><g id="e_hearts">
<path d="M138 138c4,0 7,2 9,5 1,-3 5,-5 8,-5 6,0 10,4 10,10 0,2 -1,5 -3,7 -5,5 -10,10 -15,16l-16 -16c-2,-2 -3,-5 -3,-7 0,-6 4,-10 10,-10z" fill="#FC675E"></path>
<path d="M204 138c4,0 7,2 9,5 2,-3 5,-5 9,-5 5,0 10,4 10,10 0,2 -2,5 -3,7 -5,5 -11,10 -16,16l-16 -16c-2,-2 -3,-5 -3,-7 0,-6 5,-10 10,-10z" fill="#FC675E"></path>
</g></svg>