<svg e="e_side" height="360px" id="skincolor" viewbox="0 0 360 360" width="360px" xmlns="http://www.w3.org/2000/svg" xmlns:xlink="http://www.w3.org/1999/xlink"><g id="e_side">
<path d="M229 155c0,4 -3,7 -7,7 -5,0 -8,-3 -8,-7 0,-2 1,-3 1,-5 -6,1 -9,2 -11,4 -2,1 -2,-1 -2,-1 1,-1 6,-8 14,-8 4,0 8,2 10,4 2,1 3,3 3,6z" fill="#000000" fill-opacity="0.7"></path>
<path d="M157 155c0,4 -3,7 -7,7 -4,0 -8,-3 -8,-7 0,-2 1,-3 2,-5 -7,1 -10,2 -12,4 -1,1 -2,-1 -1,-1 0,-1 6,-8 13,-8 4,0 8,2 11,4 1,1 2,3 2,6z" fill="#000000" fill-opacity="0.7"></path>
</g></svg>