<svg e="e_squint" height="360px" id="skincolor" viewbox="0 0 360 360" width="360px" xmlns="http://www.w3.org/2000/svg" xmlns:xlink="http://www.w3.org/1999/xlink"><g id="e_squint">
<path d="M148 159c-6,0 -13,1 -17,1 0,-1 0,-2 0,-3 0,-9 7,-16 17,-16 9,0 16,7 16,16 0,1 0,2 0,3 -3,0 -11,-1 -16,-1z" fill="#FEFEFE"></path>
<path d="M148 159c-2,0 -3,0 -4,0 -2,-1 -4,-3 -4,-6 0,-3 3,-6 8,-6 4,0 7,3 7,6 0,3 -1,5 -3,6 -2,0 -3,0 -4,0z" fill="#4D4D4D"></path>
<path d="M212 159c-5,0 -13,1 -16,1 0,-1 0,-2 0,-3 0,-9 7,-16 16,-16 10,0 17,7 17,16 0,1 0,2 0,3 -4,0 -11,-1 -17,-1z" fill="#FEFEFE"></path>
<path d="M212 159c-1,0 -2,0 -4,0 -2,-1 -3,-3 -3,-6 0,-3 3,-6 7,-6 4,0 8,3 8,6 0,3 -2,5 -4,6 -1,0 -2,0 -4,0z" fill="#4D4D4D"></path>
</g></svg>