<svg e="h_longhaircurvy" height="360px" id="skincolor" viewbox="0 0 360 360" width="360px" xmlns="http://www.w3.org/2000/svg" xmlns:xlink="http://www.w3.org/1999/xlink"><g class="h_longhaircurvy">
<path class="tinted" d="M183 34c50,0 67,23 80,68 4,14 13,31 20,43 5,12 0,17 0,25 8,2 23,10 30,27 4,10 -4,31 -15,38 -3,3 0,24 -6,37 -7,14 -13,13 -23,19 -7,4 23,38 4,63 -12,-22 -36,0 -51,-10 -18,-10 -18,-27 -18,-38 0,-8 5,-27 14,-44l-93 0c-6,12 -22,21 -22,28 0,6 0,19 23,21 -6,7 -23,3 -27,1 0,5 1,5 4,10 -10,-3 -15,-11 -16,-15 -6,7 -2,14 -5,24 -22,-10 -25,-31 -26,-36 -2,-33 11,-36 9,-45 -4,-17 -19,-20 -19,-37 0,-19 23,-41 28,-47 5,-6 -1,-20 0,-30 3,-18 18,-35 19,-35 31,-44 27,-67 90,-67z" fill="#9a4f2b"></path>
</g></svg>