<svg e="h_longhair" height="360px" id="skincolor" viewbox="0 0 360 360" width="360px" xmlns="http://www.w3.org/2000/svg" xmlns:xlink="http://www.w3.org/1999/xlink"><g class="h_longhair">
<path class="tinted" d="M71 174c3,-11 -13,-62 3,-94 17,-35 36,-48 83,-51 34,-3 68,-2 99,16 13,7 21,22 28,35 5,11 8,24 9,36 0,13 -6,24 -6,43 -1,32 39,33 39,62 0,40 -29,40 -28,56 1,20 28,25 28,55 0,11 -10,22 -18,28 -87,0 -174,0 -260,0 -14,-11 -15,-23 -14,-36 3,-18 25,-31 25,-49 0,-11 -25,-20 -25,-54 1,-29 37,-41 37,-47zm126 -85l-1 0c0,0 0,0 0,0l1 0z" fill="#9a4f2b"></path>
</g></svg>