<svg e="t_front" height="360px" id="skincolor" viewbox="0 0 360 360" width="360px" xmlns="http://www.w3.org/2000/svg" xmlns:xlink="http://www.w3.org/1999/xlink"><g id="t_front">
<path d="M150 253l0 3 0 0c2,-3 4,-4 4,-5 -1,0 -3,1 -4,2zm49 27c0,0 1,1 3,1 1,0 2,0 4,0 0,0 0,0 0,0 4,0 10,-1 14,-6 0,0 -1,1 -1,1 0,1 0,1 0,2 0,1 0,1 -1,2 0,1 -1,3 -2,4 -1,2 -2,3 -3,4 0,0 0,0 1,-1 0,-1 0,-1 0,-2 0,0 0,0 0,0 0,-1 0,-1 -1,-2 -1,0 -1,0 -1,0 0,0 -1,0 -1,0 -1,0 -2,0 -3,1 -1,1 -2,2 -2,3 0,0 0,0 0,1 0,0 0,0 0,0 1,0 1,0 1,0 0,0 0,0 0,0 0,0 1,0 1,0 0,0 0,-1 1,-1 0,0 0,-1 0,-1 0,0 0,1 0,1 0,0 0,1 0,1 0,1 -1,2 -1,2 -1,1 -1,3 -2,4 -2,1 -3,3 -5,4 0,-1 0,-2 1,-3 0,-2 1,-4 1,-6 0,0 0,0 0,0 0,-3 -1,-6 -4,-9zm19 5c2,-3 3,-6 3,-10 0,-1 0,-2 0,-3 0,-1 -1,-2 -1,-3 0,0 0,0 0,0 1,0 1,0 1,0 0,0 0,0 0,0 2,0 6,0 9,3 0,0 0,-1 0,-1 0,0 0,0 0,0 -1,0 -3,1 -4,3 0,1 0,1 0,1l0 0c0,1 0,1 1,2 0,0 0,0 0,0 0,0 0,0 1,0 0,0 1,0 2,-1 0,0 1,0 1,-1 0,-1 1,-1 1,-2 0,-1 0,-2 0,-3l0 0c0,-3 -1,-6 -5,-8 0,0 1,0 1,0 2,0 6,0 9,2 2,1 3,2 4,4 1,1 2,4 2,6 0,1 0,1 0,1 0,-1 -1,-2 -2,-3 0,-1 -2,-2 -3,-2 0,0 -1,0 -1,0 0,0 0,0 -1,1 -1,0 -2,1 -2,3 0,0 0,0 0,0 0,2 1,4 1,7 0,0 0,0 0,0 0,0 0,1 0,2 0,1 -1,2 -1,3 0,0 0,-1 0,-1 0,0 0,-1 0,-1 0,-1 0,-1 0,-2 0,0 0,0 -1,-1 0,0 0,-1 0,-1 -1,0 -1,0 -1,0 -1,0 -1,0 -1,0 -1,0 -2,0 -2,2 -1,1 -1,2 -1,4 0,1 0,1 0,2 0,0 0,-1 0,-1 -1,-1 -1,-2 -2,-3 -1,0 -2,-1 -3,-1 0,0 0,0 -1,0 0,0 -1,1 -1,2 -1,1 -1,2 -1,3 0,2 0,4 1,5 0,2 1,4 2,5 0,0 0,0 -1,0 0,-1 0,-1 -1,-1 0,-1 -1,-1 -1,-1 -1,-1 -2,-2 -3,-3 -1,-2 -2,-3 -2,-4 0,-1 1,-2 3,-4zm-30 -18c0,0 0,1 0,1 0,1 0,1 0,2 0,1 0,2 0,3 1,1 1,2 2,3 0,0 1,0 1,0 0,0 0,0 1,0 1,0 3,-1 5,-2 1,-2 3,-3 5,-4 3,-2 12,-4 18,-4 1,0 2,0 3,0 1,0 2,0 3,0 -1,0 -4,1 -7,2 -3,1 -6,3 -8,6 0,0 0,-1 0,-1 0,0 0,0 0,0 0,-1 0,-3 -2,-3 0,0 0,0 0,0 -1,0 -2,0 -2,1 -1,1 -1,1 -1,2l0 0c0,1 0,2 2,3 0,0 1,0 1,0 1,0 1,0 2,0 1,0 3,0 4,-1 2,0 3,-1 4,-1 -1,0 -1,0 -1,0 0,1 -1,1 -1,1 0,1 -1,1 -1,2 -1,0 -3,1 -5,2 -1,0 -3,1 -6,1 -1,0 -2,0 -3,-1 -1,0 -2,0 -3,0 0,0 0,0 1,0 0,0 0,0 1,-1 0,0 1,0 1,-1 1,0 1,-1 1,-1 0,-1 0,-1 0,-1 0,-1 0,-1 -1,-1 0,0 -1,0 -1,0 -1,0 -1,0 -2,0 0,0 -1,0 -1,1 -1,0 -1,2 -1,3 0,0 0,0 0,0 0,1 0,3 0,4 1,1 1,3 2,5 0,0 0,0 0,0 -1,-1 -1,-1 -2,-1 0,0 -1,0 -2,-1 0,0 -1,0 -2,-1 -1,-1 -3,-2 -4,-4 -1,-2 -2,-4 -2,-7 0,-1 0,-2 0,-3 0,-1 1,-2 1,-3zm23 -7l-1 0 0 -1c-1,-1 -1,-2 -2,-3 0,0 -1,-1 -1,-2 -1,0 -1,-1 -2,-1 0,0 0,0 0,-1 0,0 0,0 0,0 0,0 0,1 0,1 0,2 -1,4 -2,5 -1,2 -3,3 -5,3 0,0 0,0 0,0 -2,0 -3,0 -3,-1 -1,-1 -2,-2 -2,-3l0 0c0,-1 1,-2 2,-2 0,0 0,0 0,0 1,0 2,1 2,1 1,0 1,1 1,1 0,-2 -2,-3 -3,-5 -1,-1 -3,-2 -4,-3 -1,-1 -1,-1 -2,-2 -1,0 -1,-1 -2,-1 0,0 0,0 0,0 -1,0 -1,-1 -1,-1 5,6 7,12 7,18 0,3 -1,5 -1,7 0,2 -1,4 -1,4 1,-1 2,-2 3,-3 0,-1 1,-2 1,-2 0,-1 0,-1 1,-1 0,-1 0,-1 0,-1 0,0 0,-1 0,-1 0,0 0,0 0,0 -1,0 -1,0 -1,0 0,0 0,-1 0,-1l0 0c0,0 0,0 0,0 0,-1 0,-1 0,-1 1,0 1,0 1,0 0,0 1,0 1,0 1,1 1,1 1,1 1,0 1,1 1,1 0,0 0,0 0,0 0,1 0,1 -1,2 0,0 0,1 0,1 -1,1 -1,1 -1,1 0,1 0,1 0,1 0,0 -1,0 -1,0 0,0 1,0 1,0 0,0 1,-1 2,-1 0,-1 1,-1 2,-2 1,0 2,-1 2,-1 1,-1 1,-1 1,-1 0,0 0,0 1,-1 0,0 0,-1 0,-2 0,0 0,-1 1,-1 0,-1 1,-1 2,-1 0,0 0,0 0,0 1,0 2,0 3,1 1,0 1,1 2,2 -1,-2 -2,-3 -2,-4l0 0zm-2 6c-1,0 -1,0 -1,0 0,0 0,0 0,0 -1,0 -1,0 -1,0 0,0 0,0 -1,0 0,-1 0,-1 0,-1 0,0 0,-1 0,-1 0,0 1,0 1,-1 0,-1 1,-1 2,-1 0,0 0,0 0,0 0,0 0,0 0,0 0,0 1,0 1,1 0,0 0,0 0,0 0,1 0,1 0,1 0,0 0,1 0,1 -1,0 -1,1 -1,1zm34 -3c-1,0 -2,0 -3,-1 1,1 2,2 3,3l0 0c0,0 0,0 0,0 0,-1 0,-1 0,-2zm-19 -3c-2,0 -4,0 -6,0l-6 0c1,1 2,3 2,4 1,0 1,0 2,0 1,0 2,0 4,0 1,0 1,0 2,0 1,0 2,0 2,0 0,0 0,0 0,0 0,0 -1,0 -1,-1 0,0 -1,-1 -1,-1 0,0 0,-1 1,-1 0,-1 0,-1 1,-1zm-14 -4l0 -3c-1,-1 -3,-2 -4,-2 0,1 2,2 4,5l0 0zm-49 24c0,0 -1,1 -3,1 -1,0 -2,0 -4,0 0,0 0,0 0,0 -4,0 -10,-1 -14,-6 0,0 1,1 1,1 0,1 0,1 0,2 0,1 0,1 1,2 0,1 1,3 2,4 1,2 2,3 3,4 0,0 0,0 -1,-1 0,-1 0,-1 0,-2 0,0 0,0 0,0 0,-1 0,-1 1,-2 1,0 1,0 1,0 0,0 1,0 1,0 1,0 2,0 3,1 1,1 2,2 2,3 0,0 0,0 0,1 0,0 0,0 0,0 -1,0 -1,0 -1,0 0,0 0,0 0,0 0,0 -1,0 -1,0 0,0 0,-1 -1,-1 0,0 0,-1 0,-1 0,0 0,1 0,1 0,0 0,1 0,1 0,1 1,2 1,2 1,1 1,3 2,4 2,1 3,3 5,4 0,-1 0,-2 -1,-3 0,-2 -1,-4 -1,-6 0,0 0,0 0,0 0,-3 1,-6 4,-9zm-19 5c-2,-3 -3,-6 -3,-10 0,-1 0,-2 0,-3 0,-1 1,-2 1,-3 0,0 0,0 0,0 -1,0 -1,0 -1,0 0,0 0,0 0,0 -2,0 -6,0 -9,3 0,0 0,-1 0,-1 0,0 0,0 0,0 1,0 3,1 4,3 0,1 0,1 0,1l0 0c0,1 0,1 -1,2 0,0 0,0 0,0 0,0 0,0 -1,0 0,0 -1,0 -2,-1 0,0 -1,
</g>
<g id="xedeadea" fill="#000000" fill-opacity="0.7" style="display:none;" class="t_tribal">
<path d="M123 210c1,0 3,-1 6,0 2,0 5,1 7,3 1,1 1,2 2,3 0,1 0,2 0,3 -1,1 -2,1 -4,1 2,1 5,1 8,1 3,0 6,-1 10,-3 4,-1 8,-4 12,-9 1,-1 2,-2 3,-3 -2,1 -5,2 -9,3 -4,0 -9,0 -14,-2 -12,-4 -19,1 -21,3zm-10 -19c1,5 2,10 5,15 0,-1 0,-1 0,-1 0,0 0,0 0,0 1,-1 2,-2 3,-3 2,0 3,-1 5,-2 5,-2 10,-2 14,-1 5,1 9,3 11,4 0,0 -1,-1 -2,-1 -11,-10 -24,-13 -36,-11zm15 30c4,6 10,10 16,14 1,0 1,0 2,-1 6,-2 11,-6 15,-10 2,-2 4,-5 5,-7 1,-2 2,-4 2,-5 0,0 -1,1 -1,1 0,0 0,0 0,0 -10,11 -19,14 -26,14 -4,-1 -7,-2 -9,-3 -2,-1 -3,-2 -4,-3z" fill="#000000" fill-opacity="0.7"></path>
<path d="M237 210c-1,0 -3,-1 -6,0 -2,0 -5,1 -7,3 -1,1 -1,2 -2,3 0,1 0,2 0,3 1,1 2,1 4,1 -2,1 -5,1 -8,1 -3,0 -6,-1 -10,-3 -4,-1 -8,-4 -12,-9 -1,-1 -2,-2 -3,-3 2,1 5,2 9,3 4,0 9,0 14,-2 12,-4 19,1 21,3zm-21 25c6,-4 12,-8 16,-14 -1,1 -2,2 -4,3 -2,1 -5,2 -9,3 -7,0 -16,-3 -26,-14 0,0 0,0 0,0 0,0 -1,-1 -1,-1 0,1 1,3 2,5 1,2 3,5 5,7 4,4 9,8 15,10 1,1 1,1 2,1zm26 -29c3,-5 4,-10 5,-15 -12,-2 -25,1 -36,11 -1,0 -2,1 -2,1 2,-1 6,-3 11,-4 4,-1 9,-1 14,1 2,1 3,2 5,2 1,1 2,2 3,3 0,0 0,0 0,0 0,0 0,0 0,1z" fill="#000000" fill-opacity="0.7"></path>
</path></g></svg>
