<svg e="t_krilin" height="360px" id="skincolor" viewbox="0 0 360 360" width="360px" xmlns="http://www.w3.org/2000/svg" xmlns:xlink="http://www.w3.org/1999/xlink"><g id="t_krilin">
<path d="M191 71c3,0 6,3 6,7 0,3 -3,6 -6,6 -4,0 -6,-3 -6,-6 0,-4 2,-7 6,-7zm0 32c3,0 6,3 6,7 0,3 -3,6 -6,6 -4,0 -6,-3 -6,-6 0,-4 2,-7 6,-7zm-22 0c4,0 6,3 6,7 0,3 -2,6 -6,6 -3,0 -6,-3 -6,-6 0,-4 3,-7 6,-7zm22 -16c3,0 6,3 6,7 0,3 -3,6 -6,6 -4,0 -6,-3 -6,-6 0,-4 2,-7 6,-7zm-22 0c4,0 6,3 6,7 0,3 -2,6 -6,6 -3,0 -6,-3 -6,-6 0,-4 3,-7 6,-7zm0 -16c4,0 6,3 6,7 0,3 -2,6 -6,6 -3,0 -6,-3 -6,-6 0,-4 3,-7 6,-7z" fill="#000000" fill-opacity="0.7"></path>
</g></svg>